<?xml version="1.0" encoding="utf-8" ?>
<svg baseProfile="full" height="1024" version="1.1" width="1024" xmlns="http://www.w3.org/2000/svg" xmlns:ev="http://www.w3.org/2001/xml-events" xmlns:xlink="http://www.w3.org/1999/xlink"><defs /><polygon fill="orange" points="339,345 338,346 337,346 336,347 334,347 333,348 332,348 331,349 330,349 329,350 328,350 327,351 326,351 324,353 323,353 322,354 321,354 319,356 318,356 315,359 314,359 311,362 310,362 295,377 295,378 292,381 292,382 290,384 290,385 288,387 288,388 286,390 286,391 284,393 284,394 283,395 283,396 282,397 282,398 281,399 281,400 280,401 280,402 279,403 279,405 278,406 278,407 277,408 277,410 276,411 276,413 275,414 275,415 274,416 274,419 273,420 273,422 272,423 272,426 271,427 271,429 270,430 270,433 269,434 269,436 268,437 268,439 267,440 267,443 266,444 266,446 265,447 265,450 264,451 264,453 263,454 263,456 262,457 262,460 261,461 261,463 260,464 260,467 259,468 259,470 258,471 258,473 257,474 257,476 256,477 256,480 255,481 255,483 254,484 254,486 253,487 253,488 187,554 187,555 185,557 185,558 183,560 183,561 181,563 181,564 180,565 180,566 179,567 179,568 178,569 178,571 177,572 177,574 176,575 176,577 175,578 175,584 174,585 174,601 175,602 175,607 176,608 176,610 177,611 177,613 178,614 178,615 179,616 179,618 180,619 180,620 181,621 181,622 183,624 183,625 184,626 184,627 187,630 187,631 256,700 256,701 257,702 258,702 259,703 259,704 294,739 295,739 300,744 301,744 302,745 303,745 305,747 306,747 307,748 308,748 309,749 310,749 311,750 312,750 313,751 315,751 316,752 318,752 319,753 323,753 324,754 326,754 327,755 328,754 329,755 346,755 347,754 351,754 352,753 354,753 355,752 358,752 359,751 360,751 361,750 362,750 363,749 365,749 366,748 367,748 369,746 370,746 371,745 372,745 375,742 376,742 401,717 402,717 403,716 560,716 561,715 565,715 566,714 570,714 571,713 573,713 574,712 575,712 576,711 578,711 579,710 580,710 581,709 582,709 584,707 585,707 588,704 589,704 597,696 597,695 599,693 599,692 601,690 601,689 602,688 602,687 603,686 603,685 604,684 604,682 605,681 605,680 606,679 606,676 607,675 607,669 608,668 608,661 607,660 607,652 606,651 606,649 605,648 605,645 604,644 605,643 611,643 612,642 618,642 619,641 621,641 622,640 625,640 626,639 627,639 628,638 630,638 631,637 632,637 633,636 634,636 636,634 637,634 639,632 640,632 643,629 644,629 649,624 649,623 652,620 652,619 654,617 654,616 655,615 655,614 656,613 656,612 657,611 657,610 658,609 658,607 659,606 659,604 660,603 660,601 661,600 661,592 662,591 662,589 661,588 661,580 660,579 660,575 659,574 659,572 658,571 658,569 657,568 657,566 656,565 656,564 654,562 654,561 653,560 653,559 651,557 651,556 648,553 648,552 649,551 652,551 653,550 655,550 656,549 657,549 658,548 660,548 661,547 662,547 663,546 664,546 665,545 666,545 667,544 668,544 669,543 670,543 672,541 673,541 676,538 677,538 677,537 678,536 679,536 687,528 687,527 689,525 689,524 691,522 691,521 693,519 693,518 694,517 694,515 695,514 695,513 696,512 696,510 697,509 697,507 698,506 698,503 699,502 699,497 700,496 700,483 699,482 699,479 698,478 698,475 697,474 697,472 696,471 696,469 695,468 695,467 694,466 694,465 693,464 693,463 692,462 692,461 689,458 689,457 688,456 688,455 679,446 678,446 676,444 675,444 673,442 672,442 671,441 670,441 669,440 668,440 667,439 666,439 665,438 663,438 662,437 660,437 659,436 655,436 654,435 532,435 532,468 531,469 531,472 532,473 531,474 531,478 530,479 530,484 529,485 529,488 528,489 528,491 527,492 527,494 526,495 526,497 525,498 525,499 524,500 524,502 523,503 523,504 522,505 522,506 520,508 520,509 519,510 519,511 517,513 517,514 514,517 514,518 509,523 509,524 501,532 500,532 495,537 494,537 492,539 491,539 488,542 487,542 485,544 484,544 483,545 482,545 481,546 480,546 479,547 478,547 477,548 476,548 475,549 474,549 473,550 472,550 471,551 470,551 469,552 467,552 466,553 464,553 463,554 461,554 460,555 457,555 456,556 453,556 452,557 446,557 445,558 426,558 425,557 420,557 419,556 416,556 415,555 412,555 411,554 409,554 408,553 406,553 405,552 403,552 402,551 400,551 399,550 398,550 397,549 396,549 395,548 394,548 393,547 392,547 391,546 390,546 388,544 387,544 386,543 385,543 383,541 382,541 379,538 378,538 374,534 373,534 362,523 362,522 358,518 358,517 355,514 355,513 354,512 354,511 353,510 353,509 351,507 351,506 350,505 350,504 349,503 349,502 348,501 348,500 347,499 347,497 346,496 346,495 345,494 345,491 344,490 344,488 343,487 343,484 342,483 342,478 341,477 341,464 340,463 340,345" /><polygon fill="orange" points="649,224 648,225 641,225 640,226 636,226 635,227 633,227 632,228 630,228 629,229 627,229 626,230 625,230 624,231 623,231 622,232 621,232 620,233 619,233 618,234 617,234 615,236 614,236 611,239 610,239 575,274 574,274 573,275 459,275 458,276 456,276 455,275 454,275 453,276 448,276 447,277 444,277 443,278 441,278 440,279 438,279 437,280 435,280 434,281 433,281 432,282 431,282 430,283 429,283 427,285 426,285 425,286 424,286 423,287 422,287 420,289 419,289 415,293 414,293 406,301 406,302 405,303 404,303 404,304 402,306 402,307 399,310 399,311 398,312 398,313 397,314 397,315 395,317 395,318 394,319 394,320 393,321 393,323 392,324 392,325 391,326 391,328 390,329 390,332 389,333 389,336 388,337 388,340 387,341 387,349 386,350 386,473 387,474 387,477 388,478 388,480 389,481 389,483 390,484 390,486 392,488 392,489 393,490 393,491 396,494 396,495 405,504 406,504 408,506 409,506 410,507 411,507 413,509 415,509 416,510 418,510 419,511 420,511 421,512 424,512 425,513 433,513 434,514 439,514 440,513 447,513 448,512 451,512 452,511 454,511 455,510 456,510 457,509 458,509 459,508 460,508 461,507 462,507 463,506 464,506 465,505 466,505 470,501 471,501 475,497 475,496 478,493 478,492 480,490 480,489 481,488 481,487 482,486 482,485 483,484 483,482 484,481 484,479 485,478 485,475 486,474 486,470 487,469 487,404 488,403 488,402 489,401 489,400 490,399 490,398 496,392 497,392 498,391 500,391 501,390 503,390 504,389 641,389 642,390 656,390 657,391 662,391 663,392 666,392 667,393 669,393 670,394 673,394 674,395 675,395 676,396 678,396 679,397 681,397 682,398 683,398 684,399 685,399 686,400 687,400 688,401 689,401 690,402 691,402 692,403 693,403 695,405 696,405 697,406 698,406 701,409 702,409 705,412 706,412 711,417 712,417 717,422 717,423 723,429 723,430 726,433 726,434 728,436 728,437 730,439 730,440 732,442 732,443 733,444 733,445 734,446 734,447 735,448 735,449 736,450 736,452 737,453 737,454 738,455 738,456 739,457 739,459 740,460 740,462 741,463 741,466 742,467 742,471 743,472 743,478 744,479 744,506 743,507 743,514 742,515 742,517 743,518 742,519 742,520 745,517 746,517 746,516 747,515 748,515 753,510 753,509 758,504 759,504 760,503 760,502 819,443 819,442 821,440 821,439 822,438 822,437 823,436 823,435 824,434 824,433 825,432 825,431 826,430 826,428 827,427 827,426 828,425 828,422 829,421 829,418 830,417 829,416 830,415 830,411 831,410 831,401 830,400 830,395 829,394 829,390 828,389 828,386 827,385 827,383 826,382 826,380 825,379 825,378 824,377 824,376 823,375 823,374 821,372 821,371 820,370 820,369 819,368 819,367 814,362 814,361 768,315 768,314 767,314 765,312 765,311 764,310 763,310 760,307 760,306 692,238 691,238 689,236 688,236 686,234 685,234 684,233 683,233 682,232 681,232 679,230 678,230 677,229 674,229 673,228 672,228 671,227 668,227 667,226 663,226 662,225 656,225 655,224" /></svg>